<svg width="350" height="117" viewBox="0 0 350 117" fill="none" xmlns="http://www.w3.org/2000/svg">
<path d="M105.391 81.8204C104.942 81.3632 105.187 80.1802 105.314 79.6927C108.905 65.8668 108.894 51.2542 105.282 37.4343C105.088 36.6918 104.921 35.6583 105.455 35.1147C108.848 31.6618 108.848 26.0431 105.455 22.5901C102.063 19.1371 96.542 19.1367 93.149 22.5901C92.6879 23.0691 91.83 24.1718 90.2456 23.8231C69.3868 19.2331 48.2283 19.195 27.3579 23.7089C26.1532 23.9691 24.8938 23.6525 23.8511 22.5899C20.4584 19.1367 14.9378 19.1367 11.5451 22.5899C8.15213 26.0429 8.15213 31.6616 11.5422 35.1118L11.6125 35.1836C12.0869 35.6664 11.8583 36.8933 11.6796 37.5817C8.10379 51.3652 8.10804 65.9353 11.6914 79.7167C11.9438 80.687 11.9618 81.4614 11.7369 81.6901L11.5451 81.8855C8.15213 85.3385 8.15213 90.9572 11.5451 94.4104C14.8463 97.7709 20.4543 97.7992 23.7923 94.4696C24.4401 93.8554 25.1108 93.0453 26.3727 93.328C47.7074 98.0933 69.3425 98.0958 90.6772 93.3349C91.9254 93.0566 92.615 93.8645 93.1485 94.4104C94.8447 96.1368 97.0732 97 99.3014 97C101.53 97 103.758 96.1368 105.454 94.4102C108.847 90.9572 108.847 85.3385 105.454 81.8854L105.391 81.8204ZM99.6756 38.9523C103.029 51.782 103.039 65.3482 99.7054 78.184C98.8841 81.3463 99.4462 84.1205 101.289 85.9953L101.353 86.0604C102.484 87.2116 102.484 89.0844 101.353 90.2353C100.222 91.3864 98.3815 91.3863 97.2559 90.241L96.7955 89.7699C94.8608 87.79 92.1079 86.9711 89.4347 87.5676C68.925 92.1444 48.1262 92.1422 27.6163 87.5609C25.0607 86.9905 22.3915 87.7311 20.4766 89.5439C20.3662 89.6484 19.8353 90.1489 19.7298 90.2548C18.6364 91.3451 16.7284 91.3363 15.6471 90.2353C14.516 89.0842 14.516 87.2114 15.6477 86.0598L15.8393 85.8646C17.0844 84.5976 18.3487 82.2404 17.2996 78.206C13.9727 65.4116 13.9688 51.8851 17.2886 39.0887C18.0772 36.0492 17.8105 33.1475 15.6471 30.9397C14.516 29.7885 14.516 27.9157 15.6471 26.7648C16.7089 25.6841 18.5233 25.5158 19.8247 26.8419C22.117 29.1843 25.3846 30.1721 28.5638 29.4843C48.6268 25.1449 68.967 25.1817 89.0198 29.5939C91.866 30.2203 94.7809 29.3314 96.8171 27.2161L97.2592 26.7567C98.3912 25.6138 100.225 25.6166 101.353 26.765C102.484 27.9161 102.484 29.7889 101.353 30.9399L101.287 31.007C99.4083 32.9194 98.8362 35.741 99.6756 38.9523Z" fill="#433779"/>
<g clip-path="url(#clip0_393_4427)">
<path d="M53.7497 57.9432C54.6344 57.6275 55.4755 57.1965 56.2524 56.6611C56.9012 56.2115 57.474 55.6567 57.948 55.0187C58.3801 54.4365 58.7105 53.7824 58.9246 53.0852C59.1318 52.3912 59.2358 51.6693 59.2332 50.9438C59.2487 49.6799 59.0181 48.4255 58.555 47.2535C58.098 46.1338 57.357 45.159 56.4084 44.4295C55.2576 43.5834 53.9558 42.976 52.5764 42.6415C50.7082 42.1819 48.7903 41.9677 46.8691 42.0039H35V74.9982H47.8864C49.6404 75.0243 51.3873 74.7646 53.0613 74.229C54.4505 73.7995 55.7426 73.0929 56.8628 72.1499C57.8638 71.2895 58.6633 70.2109 59.2027 68.9933C59.7395 67.7602 60.0113 66.4238 59.9996 65.0743C59.9996 63.2263 59.4898 61.7051 58.4702 60.5108C57.4506 59.3165 55.8771 58.4607 53.7497 57.9432ZM42.4911 47.7317H46.8691C47.602 47.7217 48.334 47.7902 49.053 47.9361C49.6032 48.05 50.1219 48.2866 50.5722 48.6291C50.9753 48.9568 51.2817 49.3922 51.4573 49.8869C51.6653 50.5171 51.7629 51.1799 51.7456 51.8447C51.7678 52.5294 51.6427 53.2106 51.3793 53.8406C51.1499 54.352 50.78 54.7842 50.3145 55.0845C49.7953 55.4072 49.2192 55.6226 48.6189 55.7186C47.8795 55.8455 47.1305 55.9058 46.3807 55.8988H42.4911V47.7317ZM52.4001 66.4603C52.2657 66.9747 52.0148 67.4495 51.6676 67.8463C51.2567 68.2895 50.7521 68.6308 50.1924 68.8443C49.4147 69.1258 48.5924 69.2563 47.7677 69.2289H42.4911V61.0029H47.7202C48.5122 60.9833 49.303 61.0754 50.0703 61.2766C50.6178 61.4185 51.1282 61.6811 51.5658 62.0458C51.9391 62.3692 52.2163 62.7929 52.3661 63.269C52.5258 63.7962 52.6036 64.3457 52.5967 64.8976C52.5959 65.4249 52.5298 65.95 52.4001 66.4603V66.4603Z" fill="#433779"/>
<path d="M82.2001 64.1257C82.4036 64.0502 82.5749 63.9072 82.6853 63.7207C82.8217 63.4786 82.906 63.2109 82.9331 62.9346C82.9825 62.5109 83.0043 62.0843 82.9984 61.6578C83.0228 60.1228 82.7603 58.5968 82.2242 57.1578C81.7476 55.9012 81.0113 54.7586 80.0632 53.8043C79.1237 52.8826 77.9973 52.1722 76.7597 51.7208C73.8202 50.6954 70.6078 50.7661 67.7165 51.9199C66.3624 52.4891 65.1393 53.3283 64.1221 54.386C63.1049 55.4438 62.3151 56.6977 61.8012 58.0708C61.2665 59.4835 60.996 60.9819 61.0029 62.4918C60.966 64.3437 61.2837 66.1855 61.9389 67.9186C62.5013 69.3829 63.3666 70.7126 64.4784 71.8213C65.548 72.8714 66.8287 73.6833 68.2361 74.2034C69.7086 74.7404 71.2656 75.0101 72.8334 74.9997C73.6723 74.9957 74.5101 74.9395 75.342 74.8315C76.2377 74.7075 77.1194 74.4971 77.9744 74.2034C78.8737 73.9014 79.7342 73.4947 80.5381 72.9917C81.4094 72.4417 82.1934 71.7649 82.8642 70.9837L80.8409 68.4952C80.6997 68.296 80.51 68.136 80.2896 68.0303C80.0693 67.9246 79.8255 67.8767 79.5814 67.8911C79.1623 67.8903 78.7491 67.9904 78.377 68.1829C77.9962 68.3751 77.5764 68.5913 77.1176 68.8316C76.6152 69.0903 76.0927 69.3084 75.5553 69.4838C74.8775 69.6892 74.1714 69.7865 73.4631 69.7721C72.1034 69.8287 70.7743 69.3589 69.7536 68.4609C68.7947 67.589 68.2017 66.1852 67.9746 64.2493H81.4259C81.6891 64.2519 81.9508 64.2101 82.2001 64.1257V64.1257ZM68.0434 60.199C68.2843 58.7779 68.7763 57.6898 69.5299 56.9347C70.2835 56.1796 71.3193 55.802 72.6545 55.802C73.3118 55.7828 73.9649 55.913 74.5643 56.183C75.0603 56.4134 75.4961 56.7553 75.8375 57.1818C76.1582 57.5982 76.3921 58.0744 76.5257 58.5823C76.6677 59.1095 76.7394 59.6531 76.7391 60.199H68.0434Z" fill="#433779"/>
</g>
<path d="M130.163 55.8715H125.658V49.963H130.163V45.5755C130.163 42.8845 130.865 40.8175 132.269 39.3745C133.712 37.9315 135.818 37.21 138.587 37.21H143.91V43.177H137.651V49.963H143.91V55.8715H137.651V80.5H130.163V55.8715ZM165.518 75.4105H165.225C164.952 76.1905 164.582 76.9315 164.114 77.6335C163.685 78.2965 163.119 78.901 162.417 79.447C161.754 79.993 160.935 80.422 159.96 80.734C159.024 81.046 157.932 81.202 156.684 81.202C153.525 81.202 151.107 80.1685 149.43 78.1015C147.753 76.0345 146.915 73.09 146.915 69.268V49.963H154.403V68.5075C154.403 70.6135 154.812 72.232 155.631 73.363C156.45 74.455 157.757 75.001 159.551 75.001C160.292 75.001 161.013 74.9035 161.715 74.7085C162.456 74.5135 163.1 74.221 163.646 73.831C164.192 73.402 164.64 72.895 164.991 72.31C165.342 71.686 165.518 70.9645 165.518 70.1455V49.963H173.006V80.5H165.518V75.4105ZM179.829 80.5V49.963H187.317V56.281H187.61C187.805 55.462 188.097 54.682 188.487 53.941C188.916 53.161 189.462 52.4785 190.125 51.8935C190.788 51.3085 191.568 50.8405 192.465 50.4895C193.401 50.1385 194.474 49.963 195.683 49.963H197.321V57.0415H194.981C192.446 57.0415 190.535 57.412 189.248 58.153C187.961 58.894 187.317 60.103 187.317 61.78V80.5H179.829ZM200.967 80.5V49.963H208.455V55.0525H208.747C209.371 53.4145 210.346 52.0495 211.672 50.9575C213.037 49.8265 214.909 49.261 217.288 49.261C220.447 49.261 222.865 50.2945 224.542 52.3615C226.219 54.4285 227.058 57.373 227.058 61.195V80.5H219.57V61.9555C219.57 59.7715 219.18 58.1335 218.4 57.0415C217.62 55.9495 216.333 55.4035 214.539 55.4035C213.759 55.4035 212.998 55.5205 212.257 55.7545C211.555 55.9495 210.912 56.2615 210.327 56.6905C209.781 57.0805 209.332 57.5875 208.981 58.2115C208.63 58.7965 208.455 59.4985 208.455 60.3175V80.5H200.967ZM237.274 45.517C235.714 45.517 234.583 45.166 233.881 44.464C233.218 43.762 232.887 42.865 232.887 41.773V40.603C232.887 39.511 233.218 38.614 233.881 37.912C234.583 37.21 235.714 36.859 237.274 36.859C238.795 36.859 239.907 37.21 240.609 37.912C241.311 38.614 241.662 39.511 241.662 40.603V41.773C241.662 42.865 241.311 43.762 240.609 44.464C239.907 45.166 238.795 45.517 237.274 45.517ZM233.53 49.963H241.018V80.5H233.53V49.963ZM257.405 80.5C254.831 80.5 252.862 79.837 251.497 78.511C250.171 77.146 249.508 75.2155 249.508 72.7195V55.93H245.003V49.963H247.343C248.474 49.963 249.235 49.7095 249.625 49.2025C250.054 48.6565 250.268 47.857 250.268 46.804V41.5975H256.996V49.963H263.255V55.93H256.996V74.533H262.787V80.5H257.405ZM286.174 75.4105H285.881C285.608 76.1905 285.238 76.9315 284.77 77.6335C284.341 78.2965 283.775 78.901 283.073 79.447C282.41 79.993 281.591 80.422 280.616 80.734C279.68 81.046 278.588 81.202 277.34 81.202C274.181 81.202 271.763 80.1685 270.086 78.1015C268.409 76.0345 267.571 73.09 267.571 69.268V49.963H275.059V68.5075C275.059 70.6135 275.468 72.232 276.287 73.363C277.106 74.455 278.413 75.001 280.207 75.001C280.948 75.001 281.669 74.9035 282.371 74.7085C283.112 74.5135 283.756 74.221 284.302 73.831C284.848 73.402 285.296 72.895 285.647 72.31C285.998 71.686 286.174 70.9645 286.174 70.1455V49.963H293.662V80.5H286.174V75.4105ZM300.485 80.5V49.963H307.973V56.281H308.266C308.461 55.462 308.753 54.682 309.143 53.941C309.572 53.161 310.118 52.4785 310.781 51.8935C311.444 51.3085 312.224 50.8405 313.121 50.4895C314.057 50.1385 315.13 49.963 316.339 49.963H317.977V57.0415H315.637C313.102 57.0415 311.191 57.412 309.904 58.153C308.617 58.894 307.973 60.103 307.973 61.78V80.5H300.485ZM333.681 81.202C331.419 81.202 329.391 80.8315 327.597 80.0905C325.842 79.3105 324.34 78.238 323.092 76.873C321.883 75.469 320.947 73.792 320.284 71.842C319.621 69.853 319.29 67.63 319.29 65.173C319.29 62.755 319.602 60.571 320.226 58.621C320.889 56.671 321.825 55.0135 323.034 53.6485C324.243 52.2445 325.725 51.172 327.48 50.431C329.235 49.651 331.224 49.261 333.447 49.261C335.826 49.261 337.893 49.6705 339.648 50.4895C341.403 51.3085 342.846 52.42 343.977 53.824C345.108 55.228 345.946 56.866 346.492 58.738C347.077 60.571 347.37 62.5405 347.37 64.6465V67.1035H327.07V67.864C327.07 70.087 327.694 71.881 328.942 73.246C330.19 74.572 332.043 75.235 334.5 75.235C336.372 75.235 337.893 74.845 339.063 74.065C340.272 73.285 341.344 72.2905 342.28 71.0815L346.317 75.586C345.069 77.341 343.353 78.7255 341.169 79.7395C339.024 80.7145 336.528 81.202 333.681 81.202ZM333.564 54.877C331.575 54.877 329.995 55.54 328.825 56.866C327.655 58.192 327.07 59.908 327.07 62.014V62.482H339.589V61.9555C339.589 59.8495 339.063 58.153 338.01 56.866C336.996 55.54 335.514 54.877 333.564 54.877Z" fill="#433779"/>
<defs>
<clipPath id="clip0_393_4427">
<rect width="48" height="33" fill="white" transform="translate(35 42)"/>
</clipPath>
</defs>
</svg>
